<?xml version="1.0" encoding="utf-8"?>
<!-- Generator: Adobe Illustrator 21.1.0, SVG Export Plug-In . SVG Version: 6.00 Build 0)  -->
<svg version="1.1" id="Layer_1" xmlns="http://www.w3.org/2000/svg" xmlns:xlink="http://www.w3.org/1999/xlink" x="0px" y="0px"
	 viewBox="0 0 511 511" style="enable-background:new 0 0 511 511;" xml:space="preserve">
<style type="text/css">
	.st0{fill:url(#SVGID_1_);}
</style>
<linearGradient id="SVGID_1_" gradientUnits="userSpaceOnUse" x1="53.2008" y1="190.2437" x2="425.2402" y2="190.2437" gradientTransform="matrix(0.998 0 0 -0.998 -9.761155e-02 511.226)">
	<stop  offset="0" style="stop-color:#00F2FE"/>
	<stop  offset="2.080000e-02" style="stop-color:#03EFFE"/>
	<stop  offset="0.2931" style="stop-color:#24D2FE"/>
	<stop  offset="0.5538" style="stop-color:#3CBDFE"/>
	<stop  offset="0.7956" style="stop-color:#4AB0FE"/>
	<stop  offset="1" style="stop-color:#4FACFE"/>
</linearGradient>
<path class="st0" d="M396.3,420.8c-10.5,3.3-16.3,14.6-13,25.1c2,6.2,0.9,12.7-2.9,18c-3.8,5.2-9.7,8.2-16.1,8.2H113
	c-6.4,0-12.3-3-16.1-8.2c-3.8-5.2-4.9-11.8-2.9-18c20.1-63.2,78.3-105.6,144.7-105.6c39.9,0,77.6,15.3,106.1,43.2
	c7.9,7.7,20.5,7.5,28.2-0.4c7.7-7.9,7.5-20.5-0.4-28.2c-18.3-17.8-39.6-31.6-62.7-40.8c21.7-19.2,35.5-47.3,35.5-78.5
	c0-57.8-47-104.8-104.8-104.8c-57.8,0-104.8,47-104.8,104.8c0,30.6,13.2,58.3,34.3,77.4c-16.2,6.2-31.5,14.6-45.7,25.1
	c-32.6,24.2-56.3,57.3-68.5,95.7c-5.9,18.5-2.7,38,8.7,53.6C76,503,93.6,512,113,512h251.4c19.3,0,37-8.9,48.4-24.5
	c11.4-15.6,14.6-35.2,8.7-53.6C418.1,423.3,406.8,417.5,396.3,420.8z M244.7,169.7c35.8,0,64.9,29.1,64.9,64.9
	c0,35.8-29.1,64.9-64.9,64.9c-35.8,0-64.9-29.1-64.9-64.9C179.8,198.8,208.9,169.7,244.7,169.7z"/>
</svg>
